<?xml version="1.0" standalone="no"?>
<!DOCTYPE svg PUBLIC "-//W3C//DTD SVG 20010904//EN"
 "http://www.w3.org/TR/2001/REC-SVG-20010904/DTD/svg10.dtd">
<svg version="1.0" xmlns="http://www.w3.org/2000/svg"
 width="246.000000pt" height="246.000000pt" viewBox="0 0 246.000000 246.000000"
 preserveAspectRatio="xMidYMid meet">

<g transform="translate(0.000000,246.000000) scale(0.100000,-0.100000)"
fill="#000000" stroke="none">
<path d="M1075 2400 c-74 -10 -169 -35 -250 -66 -11 -4 -22 -8 -25 -9 -52 -14
-62 -27 -32 -44 9 -6 12 -11 4 -11 -7 0 -20 5 -30 11 -26 16 -75 -8 -190 -94
-156 -116 -278 -257 -358 -412 -40 -77 -41 -81 -25 -102 11 -13 26 -20 43 -18
19 2 28 -2 31 -17 5 -18 4 -19 -12 -4 -19 17 -31 21 -31 8 0 -4 35 -43 77 -87
43 -45 113 -118 156 -163 79 -83 87 -90 87 -72 0 19 33 61 39 51 4 -6 12 3 18
19 7 18 7 30 2 30 -6 0 -4 6 3 14 11 11 17 11 38 -2 l25 -16 -20 24 c-11 14
-73 78 -138 144 l-117 119 47 71 c100 147 250 276 413 353 113 54 104 65 110
-137 3 -99 8 -164 12 -150 4 14 8 37 8 52 0 36 10 59 22 52 5 -3 22 8 37 25
15 17 34 31 42 31 20 0 39 20 39 42 0 26 20 22 21 -4 1 -19 2 -18 10 7 5 17 9
59 7 94 -1 64 -1 65 28 73 37 11 154 6 161 -6 3 -5 6 -36 5 -70 -1 -34 3 -79
7 -101 l9 -40 1 35 c2 30 3 32 11 14 5 -12 24 -27 44 -34 24 -7 36 -18 38 -33
2 -12 8 -21 13 -20 21 3 35 -21 46 -78 21 -107 30 -65 27 121 -2 99 -2 176 0
171 2 -6 10 -7 17 -4 8 3 35 -5 60 -17 42 -20 65 -20 65 0 0 5 -17 14 -37 21
-21 7 -33 14 -26 16 6 2 25 -3 42 -12 32 -16 41 -40 19 -47 -7 -3 10 -15 37
-29 28 -13 55 -27 60 -31 6 -5 38 -28 72 -54 102 -75 269 -273 261 -310 -2 -7
-68 -79 -147 -159 -79 -81 -140 -149 -137 -153 4 -3 11 -1 15 6 12 20 60 42
66 31 4 -5 -1 -9 -9 -9 -9 0 -16 -3 -16 -7 1 -14 24 -39 43 -46 9 -3 17 -17
17 -29 0 -19 -2 -20 -11 -8 -9 13 -10 13 -6 0 2 -8 11 -14 20 -12 14 2 14 -3
-5 -34 -20 -33 99 83 223 219 24 27 74 80 110 119 l67 70 -45 89 c-25 49 -49
89 -54 89 -5 0 -9 5 -9 11 0 14 -50 79 -119 154 -116 125 -247 214 -446 301
-53 23 -142 46 -185 48 -19 0 -38 4 -41 9 -9 12 -277 17 -354 7z m450 -50 c3
-5 -1 -10 -9 -10 -9 0 -16 5 -16 10 0 6 4 10 9 10 6 0 13 -4 16 -10z m-572 -7
c-7 -2 -21 -2 -30 0 -10 3 -4 5 12 5 17 0 24 -2 18 -5z m624 1 c-3 -3 -12 -4
-19 -1 -8 3 -5 6 6 6 11 1 17 -2 13 -5z m-727 -34 c0 -5 -2 -10 -4 -10 -3 0
-8 5 -11 10 -3 6 -1 10 4 10 6 0 11 -4 11 -10z m713 3 c-7 -2 -19 -2 -25 0 -7
3 -2 5 12 5 14 0 19 -2 13 -5z m-766 -50 c-3 -10 -5 -2 -5 17 0 19 2 27 5 18
2 -10 2 -26 0 -35z m823 27 c0 -5 -4 -10 -10 -10 -5 0 -10 5 -10 10 0 6 5 10
10 10 6 0 10 -4 10 -10z m-740 -33 c0 -18 -2 -19 -10 -7 -13 20 -13 43 0 35 6
-3 10 -16 10 -28z m836 17 c17 -14 17 -15 1 -10 -10 3 -23 6 -28 6 -5 0 -9 5
-9 10 0 14 13 12 36 -6z m-981 -22 c-3 -3 -11 0 -18 7 -9 10 -8 11 6 5 10 -3
15 -9 12 -12z m130 -32 c10 0 16 -3 12 -6 -12 -13 -57 6 -57 24 1 16 1 16 14
0 7 -10 21 -18 31 -18z m-135 10 c8 -5 11 -10 5 -10 -5 0 -17 5 -25 10 -8 5
-10 10 -5 10 6 0 17 -5 25 -10z m885 0 c3 -5 1 -10 -4 -10 -6 0 -11 5 -11 10
0 6 2 10 4 10 3 0 8 -4 11 -10z m-25 -20 c0 -5 -4 -10 -10 -10 -5 0 -10 5 -10
10 0 6 5 10 10 10 6 0 10 -4 10 -10z m-679 -13 c-1 -12 -15 -9 -19 4 -3 6 1
10 8 8 6 -3 11 -8 11 -12z m967 1 c19 -19 14 -33 -6 -15 -10 10 -22 14 -25 10
-4 -3 -7 -1 -7 5 0 16 23 15 38 0z m-1271 -14 c-3 -3 -12 -4 -19 -1 -8 3 -5 6
6 6 11 1 17 -2 13 -5z m240 -11 c-9 -9 -19 -14 -23 -11 -10 10 6 28 24 28 15
0 15 -1 -1 -17z m510 -5 c-3 -8 -6 -5 -6 6 -1 11 2 17 5 13 3 -3 4 -12 1 -19z
m-762 -18 c3 -5 2 -10 -4 -10 -5 0 -13 5 -16 10 -3 6 -2 10 4 10 5 0 13 -4 16
-10z m1298 -7 c-7 -2 -19 -2 -25 0 -7 3 -2 5 12 5 14 0 19 -2 13 -5z m-1098
-13 c-11 -4 -24 -5 -28 -3 -4 3 -17 -6 -29 -19 l-20 -23 7 24 c5 15 4 21 -3
17 -6 -3 -13 -3 -16 2 -3 5 21 9 52 9 37 1 50 -1 37 -7z m920 0 c3 -5 2 -10
-4 -10 -5 0 -13 5 -16 10 -3 6 -2 10 4 10 5 0 13 -4 16 -10z m35 -20 c0 -5 -2
-10 -4 -10 -3 0 -8 5 -11 10 -3 6 -1 10 4 10 6 0 11 -4 11 -10z m90 -34 c0 -8
-6 -16 -14 -19 -10 -4 -12 0 -9 14 6 22 23 26 23 5z m-1196 -25 c4 -5 -3 -7
-14 -4 -23 6 -26 13 -6 13 8 0 17 -4 20 -9z m-24 -25 c0 -2 -7 -7 -16 -10 -8
-3 -12 -2 -9 4 6 10 25 14 25 6z m1280 0 c0 -11 -19 -15 -25 -6 -3 5 1 10 9
10 9 0 16 -2 16 -4z m-1530 -36 c0 -5 -5 -10 -11 -10 -5 0 -7 5 -4 10 3 6 8
10 11 10 2 0 4 -4 4 -10z m1754 -15 c-6 -16 -24 -21 -24 -7 0 11 11 22 21 22
5 0 6 -7 3 -15z m-1584 -10 c7 -8 8 -15 2 -15 -5 0 -15 7 -22 15 -7 8 -8 15
-2 15 5 0 15 -7 22 -15z m1414 0 c-4 -8 -1 -15 5 -15 6 0 11 -5 11 -12 0 -8
-6 -7 -16 4 -9 9 -13 21 -10 27 10 16 16 13 10 -4z m43 -37 c-3 -7 -5 -2 -5
12 0 14 2 19 5 13 2 -7 2 -19 0 -25z m-1487 18 c0 -2 -7 -6 -15 -10 -8 -3 -15
-1 -15 4 0 6 7 10 15 10 8 0 15 -2 15 -4z m1630 -6 c0 -5 -4 -10 -10 -10 -5 0
-10 5 -10 10 0 6 5 10 10 10 6 0 10 -4 10 -10z m-1836 -45 c-26 -18 -30 -11
-7 12 10 10 20 15 22 10 1 -4 -5 -14 -15 -22z m1885 6 c7 -5 12 -14 10 -20 -3
-7 -11 -3 -21 9 -18 21 -13 26 11 11z m-1769 -16 c-7 -9 -15 -13 -17 -11 -7 7
7 26 19 26 6 0 6 -6 -2 -15z m1660 -5 c0 -5 -2 -10 -4 -10 -3 0 -8 5 -11 10
-3 6 -1 10 4 10 6 0 11 -4 11 -10z m-1790 -20 c0 -5 -5 -10 -11 -10 -5 0 -7 5
-4 10 3 6 8 10 11 10 2 0 4 -4 4 -10z m160 -4 c0 -3 -4 -8 -10 -11 -5 -3 -10
-1 -10 4 0 6 5 11 10 11 6 0 10 -2 10 -4z m1605 -6 c3 -5 1 -10 -4 -10 -6 0
-11 5 -11 10 0 6 2 10 4 10 3 0 8 -4 11 -10z m185 -9 c0 -5 -7 -12 -16 -15
-14 -5 -15 -4 -4 9 14 17 20 19 20 6z m-1970 -11 c0 -5 -4 -10 -10 -10 -5 0
-10 5 -10 10 0 6 5 10 10 10 6 0 10 -4 10 -10z m142 -33 c-5 -20 -6 -20 -12
-1 -4 10 -5 25 -2 32 8 22 21 -6 14 -31z m1671 6 c-4 -10 -9 -11 -16 -4 -5 5
-7 18 -3 28 6 14 9 15 16 4 4 -8 6 -21 3 -28z m177 -48 c5 3 12 0 15 -6 5 -7
1 -10 -10 -7 -10 1 -20 9 -21 16 -1 7 0 8 3 2 2 -5 9 -8 13 -5z m-125 -14 c-3
-6 -11 -11 -16 -11 -5 0 -4 6 3 14 14 16 24 13 13 -3z m-1770 -1 c8 -13 -5
-13 -25 0 -13 8 -13 10 2 10 9 0 20 -4 23 -10z m1935 -35 c0 -8 -4 -17 -10
-20 -6 -4 -10 5 -10 20 0 15 4 24 10 20 6 -3 10 -12 10 -20z m-2073 -17 c-3
-7 -5 -2 -5 12 0 14 2 19 5 13 2 -7 2 -19 0 -25z m1922 -6 c0 -24 -1 -25 -9
-7 -12 28 -12 47 0 40 6 -3 10 -18 9 -33z m121 -5 c0 -5 -4 -5 -10 -2 -5 3
-10 14 -10 23 0 15 2 15 10 2 5 -8 10 -19 10 -23z m-5 -25 c-3 -3 -11 0 -18 7
-9 10 -8 11 6 5 10 -3 15 -9 12 -12z m-17 -20 c2 -7 -2 -10 -12 -6 -9 3 -16
11 -16 16 0 13 23 5 28 -10z m-1818 -28 c0 -3 -7 -1 -15 6 -8 7 -15 17 -15 22
0 5 7 3 15 -6 8 -8 15 -18 15 -22z m1770 32 c0 -3 -4 -8 -10 -11 -5 -3 -10 -1
-10 4 0 6 5 11 10 11 6 0 10 -2 10 -4z m-140 -26 c0 -5 -4 -10 -10 -10 -5 0
-10 5 -10 10 0 6 5 10 10 10 6 0 10 -4 10 -10z m107 -12 c-3 -8 -6 -5 -6 6 -1
11 2 17 5 13 3 -3 4 -12 1 -19z m-1867 -8 c0 -11 5 -20 10 -20 6 0 10 -5 10
-10 0 -15 -49 22 -50 38 0 6 7 12 15 12 8 0 15 -9 15 -20z m1737 -6 c-3 -3
-12 -4 -19 -1 -8 3 -5 6 6 6 11 1 17 -2 13 -5z m133 -8 c0 -3 -4 -8 -10 -11
-5 -3 -10 -1 -10 4 0 6 5 11 10 11 6 0 10 -2 10 -4z m-45 -25 c3 -5 1 -12 -5
-16 -5 -3 -10 1 -10 9 0 18 6 21 15 7z m-135 -4 c0 -2 -10 -12 -22 -23 l-23
-19 19 23 c18 21 26 27 26 19z m-1579 -47 c5 0 9 -9 9 -20 0 -11 -6 -20 -13
-20 -21 0 -28 12 -16 27 8 9 8 13 1 13 -7 0 -8 7 -4 18 6 16 7 16 10 0 2 -10
8 -18 13 -18z m1694 -20 c-10 -11 -20 -18 -23 -16 -5 6 21 35 32 36 5 0 1 -9
-9 -20z m-1538 -22 c-3 -8 -6 -5 -6 6 -1 11 2 17 5 13 3 -3 4 -12 1 -19z
m-123 -34 c3 -8 2 -12 -4 -9 -6 3 -10 10 -10 16 0 14 7 11 14 -7z m50 -20 c5
-14 4 -15 -9 -4 -17 14 -19 20 -6 20 5 0 12 -7 15 -16z m1516 12 c0 -11 -19
-15 -25 -6 -3 5 1 10 9 10 9 0 16 -2 16 -4z"/>
<path d="M2302 1595 c-23 -25 -42 -47 -42 -51 0 -3 -14 -17 -31 -31 -27 -23
-30 -31 -25 -62 28 -161 28 -327 1 -441 -8 -30 -16 -71 -20 -90 l-6 -35 17 32
c16 32 34 36 34 8 0 -8 10 -21 22 -29 12 -9 19 -16 14 -16 -5 0 -2 -8 6 -17 8
-10 21 -40 28 -67 l13 -48 18 36 c19 40 40 108 66 211 20 83 25 414 6 437 -6
7 -14 39 -18 71 -4 31 -11 60 -16 63 -5 3 -9 15 -9 27 0 47 -15 48 -58 2z m29
-39 c-6 -7 -10 -20 -8 -27 2 -8 2 -11 0 -6 -3 4 -10 4 -15 1 -7 -5 -8 -2 -3 7
13 22 27 39 32 39 3 0 0 -6 -6 -14z m6 -128 c-3 -8 -6 -5 -6 6 -1 11 2 17 5
13 3 -3 4 -12 1 -19z m-99 -469 c-3 -8 -7 -3 -11 10 -4 17 -3 21 5 13 5 -5 8
-16 6 -23z m132 11 c0 -5 -5 -10 -11 -10 -5 0 -7 5 -4 10 3 6 8 10 11 10 2 0
4 -4 4 -10z m-43 -52 c-3 -7 -5 -2 -5 12 0 14 2 19 5 13 2 -7 2 -19 0 -25z
m33 -12 c0 -3 -4 -8 -10 -11 -5 -3 -10 -1 -10 4 0 6 5 11 10 11 6 0 10 -2 10
-4z m-28 -68 c-6 -6 -7 0 -4 19 5 21 7 23 10 9 2 -10 0 -22 -6 -28z"/>
<path d="M127 1624 c-4 -4 -7 -17 -7 -29 0 -11 -4 -25 -9 -30 -26 -28 -56
-291 -42 -367 11 -56 36 -183 46 -233 3 -16 13 -64 21 -105 19 -96 22 -103 34
-95 8 5 7 11 -1 21 -6 7 -8 25 -5 38 3 14 2 28 -4 31 -5 3 -10 11 -10 18 0 8
3 8 12 -1 7 -7 17 -12 24 -12 12 0 41 58 36 73 -1 4 2 7 8 7 5 0 10 -6 10 -12
0 -7 5 -5 11 5 5 9 15 17 22 17 7 0 6 -4 -3 -10 -13 -8 -12 -10 3 -10 16 0 18
5 12 43 -4 23 -12 51 -18 62 -16 31 -14 342 3 387 11 29 11 42 2 63 -7 16 -17
23 -24 19 -6 -4 -8 -3 -5 3 7 12 -106 126 -116 117z m7 -79 c-4 -8 -8 -15 -10
-15 -2 0 -4 7 -4 15 0 8 4 15 10 15 5 0 7 -7 4 -15z m61 -6 c11 -17 -1 -21
-15 -4 -8 9 -8 15 -2 15 6 0 14 -5 17 -11z m-65 -55 c0 -8 -4 -12 -10 -9 -5 3
-10 10 -10 16 0 5 5 9 10 9 6 0 10 -7 10 -16z m27 -16 c-3 -7 -5 -2 -5 12 0
14 2 19 5 13 2 -7 2 -19 0 -25z m3 -69 c0 -6 -4 -7 -10 -4 -5 3 -10 11 -10 16
0 6 5 7 10 4 6 -3 10 -11 10 -16z m-30 -233 c0 -8 -4 -18 -10 -21 -5 -3 -10 3
-10 14 0 12 5 21 10 21 6 0 10 -6 10 -14z m27 -8 c-3 -8 -6 -5 -6 6 -1 11 2
17 5 13 3 -3 4 -12 1 -19z m-28 -132 c2 -45 -6 -27 -12 29 -4 34 -3 42 3 25 4
-14 8 -38 9 -54z m28 12 c-3 -7 -5 -2 -5 12 0 14 2 19 5 13 2 -7 2 -19 0 -25z
m103 -68 c0 -5 -4 -10 -10 -10 -5 0 -10 5 -10 10 0 6 5 10 10 10 6 0 10 -4 10
-10z m-113 -37 c-3 -10 -5 -4 -5 12 0 17 2 24 5 18 2 -7 2 -21 0 -30z"/>
<path d="M1341 1434 c0 -11 3 -14 6 -6 3 7 2 16 -1 19 -3 4 -6 -2 -5 -13z"/>
<path d="M1119 1400 c-3 -35 -9 -47 -26 -55 -13 -5 -23 -15 -23 -22 0 -21 -23
-63 -34 -63 -6 0 -21 -18 -34 -40 -12 -22 -18 -40 -13 -40 15 0 4 -24 -17 -37
-17 -10 -18 -7 -16 33 2 24 -1 44 -7 44 -5 0 -9 -16 -9 -35 0 -19 -4 -43 -9
-53 -6 -9 -13 -34 -16 -54 -4 -24 -10 -35 -18 -32 -8 3 -22 -5 -33 -17 -17
-20 -17 -22 -1 -16 9 4 17 2 17 -4 0 -5 -7 -12 -15 -15 -22 -9 -19 -16 30 -70
l45 -49 0 -158 c0 -103 3 -156 10 -152 6 3 10 15 10 26 0 18 6 20 80 17 44 -2
80 -7 81 -13 1 -5 5 8 10 30 10 50 10 714 0 775 l-8 45 -4 -45z m-81 -777
c-16 -2 -40 -2 -55 0 -16 2 -3 4 27 4 30 0 43 -2 28 -4z"/>
<path d="M1330 1010 c0 -217 3 -406 7 -420 l7 -25 6 29 c3 16 12 31 20 33 13
4 13 3 0 -6 -12 -8 -6 -11 25 -11 26 0 35 3 27 9 -11 7 -11 9 2 14 11 5 16 1
16 -12 0 -14 5 -18 19 -14 11 3 27 -3 39 -15 11 -11 23 -18 26 -14 3 3 6 69 6
146 l0 141 33 36 c55 59 77 91 71 100 -9 15 -24 10 -24 -8 0 -15 -2 -14 -14 3
-10 14 -11 21 -3 26 15 9 5 19 -22 21 -11 1 -21 7 -21 15 0 7 -4 11 -8 8 -4
-2 -8 4 -9 14 -1 10 6 21 15 23 16 4 15 5 0 6 -10 0 -20 12 -24 25 -3 15 -16
27 -30 30 -14 4 -22 11 -19 15 3 5 14 7 25 4 11 -3 20 -1 20 5 0 5 -14 8 -31
6 -16 -2 -28 0 -25 4 3 5 -7 16 -22 24 -17 10 -35 36 -47 67 -11 28 -23 51
-27 51 -4 0 -8 6 -8 13 0 7 -7 22 -15 33 -13 17 -14 -27 -15 -376z"/>
<path d="M530 1320 c-11 -21 -6 -40 12 -40 5 0 7 7 4 16 -4 9 -1 23 5 30 8 10
8 14 1 14 -6 0 -16 -9 -22 -20z"/>
<path d="M783 973 c-7 -2 -13 -9 -13 -14 0 -6 -11 -22 -25 -37 -14 -15 -25
-31 -25 -37 0 -5 9 1 21 15 31 39 61 80 57 79 -2 0 -9 -3 -15 -6z"/>
<path d="M1690 971 c0 -6 4 -13 10 -16 6 -3 7 1 4 9 -7 18 -14 21 -14 7z"/>
<path d="M1730 913 c0 -6 8 -17 18 -24 16 -13 16 -13 2 6 -8 11 -16 22 -17 24
-2 2 -3 0 -3 -6z"/>
<path d="M686 851 c-4 -7 -5 -15 -2 -18 9 -9 19 4 14 18 -4 11 -6 11 -12 0z"/>
<path d="M650 789 c-12 -16 -21 -32 -18 -34 2 -2 13 12 26 31 28 42 21 45 -8
3z"/>
<path d="M606 741 c-4 -7 -5 -15 -2 -18 9 -9 19 4 14 18 -4 11 -6 11 -12 0z"/>
<path d="M585 700 c-3 -5 -1 -10 4 -10 6 0 11 5 11 10 0 6 -2 10 -4 10 -3 0
-8 -4 -11 -10z"/>
<path d="M556 665 c-3 -8 -1 -15 3 -15 5 0 11 7 15 15 3 8 1 15 -3 15 -5 0
-11 -7 -15 -15z"/>
<path d="M1218 233 c12 -2 32 -2 45 0 12 2 2 4 -23 4 -25 0 -35 -2 -22 -4z"/>
<path d="M662 204 c36 -35 204 -101 348 -136 74 -18 387 -18 455 0 131 35 165
45 225 70 61 24 140 69 140 79 0 7 -44 -8 -59 -21 -8 -6 -37 -18 -65 -27 -48
-16 -52 -16 -66 0 -14 16 -49 17 -402 16 -352 -1 -389 -2 -400 -18 -9 -11 -18
-14 -27 -8 -12 8 -12 12 -2 25 10 12 10 16 1 16 -6 0 -14 -9 -17 -20 -6 -22
-18 -26 -29 -9 -3 6 0 15 7 20 20 12 2 11 -22 -2 -22 -11 -60 8 -40 21 6 3 -5
6 -24 6 -28 0 -33 -2 -23 -12z m969 -72 c-7 -2 -18 1 -23 6 -8 8 -4 9 13 5 13
-4 18 -8 10 -11z m-151 -2 c0 -5 -10 -10 -22 -10 -19 0 -20 2 -8 10 19 13 30
13 30 0z m-583 -6 c-3 -3 -12 -4 -19 -1 -8 3 -5 6 6 6 11 1 17 -2 13 -5z m143
-4 c0 -13 -11 -13 -30 0 -12 8 -11 10 8 10 12 0 22 -4 22 -10z m-13 -26 c-3
-3 -12 -4 -19 -1 -8 3 -5 6 6 6 11 1 17 -2 13 -5z"/>
</g>
</svg>
